<svg xmlns="http://www.w3.org/2000/svg" width="12.229" height="14.452" viewBox="0 0 12.229 14.452">
  <g id="chevron-double-down" transform="translate(0 14.452) rotate(-90)" opacity="0.9">
    <path id="Path_69" data-name="Path 69" d="M.163.163a.556.556,0,0,1,.787,0L7.226,6.44,13.5.163a.556.556,0,1,1,.787.787L7.62,7.62a.556.556,0,0,1-.787,0L.163.95a.556.556,0,0,1,0-.787Z" transform="translate(0 4.446)" fill="#1f88ea" fill-rule="evenodd"/>
    <path id="Path_70" data-name="Path 70" d="M.163.163a.556.556,0,0,1,.787,0L7.226,6.44,13.5.163a.556.556,0,1,1,.787.787L7.62,7.62a.556.556,0,0,1-.787,0L.163.95a.556.556,0,0,1,0-.787Z" transform="translate(0 0)" fill="#1f88ea" fill-rule="evenodd"/>
  </g>
</svg>
