<svg xmlns="http://www.w3.org/2000/svg" xmlns:xlink="http://www.w3.org/1999/xlink" width="25.999" height="26" viewBox="0 0 25.999 26">
  <defs>
    <clipPath id="clip-path">
      <rect id="Rectangle_228" data-name="Rectangle 228" width="25.999" height="26" fill="none"/>
    </clipPath>
  </defs>
  <g id="Group_284" data-name="Group 284" transform="translate(0 0)">
    <g id="Group_283" data-name="Group 283" transform="translate(0 0)" clip-path="url(#clip-path)">
      <path id="Path_269" data-name="Path 269" d="M13,2.342c3.471,0,3.883.014,5.253.076a7.171,7.171,0,0,1,2.414.448,4.013,4.013,0,0,1,1.495.972,4.023,4.023,0,0,1,.972,1.494,7.2,7.2,0,0,1,.448,2.414c.062,1.371.076,1.782.076,5.253s-.014,3.882-.076,5.253a7.188,7.188,0,0,1-.448,2.414,4.3,4.3,0,0,1-2.467,2.467,7.171,7.171,0,0,1-2.414.448c-1.371.062-1.781.075-5.253.075s-3.883-.013-5.253-.075a7.171,7.171,0,0,1-2.414-.448,4.019,4.019,0,0,1-1.495-.972,4.013,4.013,0,0,1-.972-1.495,7.211,7.211,0,0,1-.448-2.414c-.062-1.371-.075-1.782-.075-5.253s.013-3.882.075-5.253a7.222,7.222,0,0,1,.448-2.414,4.023,4.023,0,0,1,.972-1.494,4.019,4.019,0,0,1,1.495-.972,7.171,7.171,0,0,1,2.414-.448C9.117,2.356,9.529,2.342,13,2.342M13,0C9.469,0,9.027.015,7.64.078a9.556,9.556,0,0,0-3.156.6,6.374,6.374,0,0,0-2.3,1.5,6.37,6.37,0,0,0-1.5,2.3,9.55,9.55,0,0,0-.6,3.155C.015,9.027,0,9.469,0,13s.015,3.973.078,5.36a9.56,9.56,0,0,0,.6,3.156,6.374,6.374,0,0,0,1.5,2.3,6.374,6.374,0,0,0,2.3,1.5,9.556,9.556,0,0,0,3.156.6C9.027,25.985,9.469,26,13,26s3.973-.015,5.36-.078a9.546,9.546,0,0,0,3.155-.6,6.652,6.652,0,0,0,3.8-3.8,9.561,9.561,0,0,0,.6-3.156C25.985,16.973,26,16.53,26,13s-.015-3.973-.078-5.36a9.55,9.55,0,0,0-.6-3.155,6.37,6.37,0,0,0-1.5-2.3,6.37,6.37,0,0,0-2.3-1.5,9.546,9.546,0,0,0-3.155-.6C16.973.015,16.53,0,13,0" transform="translate(0 0)" fill="#fff"/>
      <path id="Path_270" data-name="Path 270" d="M14.11,7.435a6.675,6.675,0,1,0,6.676,6.675A6.676,6.676,0,0,0,14.11,7.435m0,11.008a4.333,4.333,0,1,1,4.334-4.334,4.334,4.334,0,0,1-4.334,4.334" transform="translate(-1.11 -1.11)" fill="#fff"/>
      <path id="Path_271" data-name="Path 271" d="M24.724,6.85a1.56,1.56,0,1,1-1.56-1.56,1.56,1.56,0,0,1,1.56,1.56" transform="translate(-3.225 -0.789)" fill="#fff"/>
    </g>
  </g>
</svg>
