<svg xmlns="http://www.w3.org/2000/svg" width="99.389" height="99.389" viewBox="0 0 99.389 99.389">
  <g id="play-circle" opacity="0.4">
    <path id="Path_263" data-name="Path 263" d="M49.694,93.177A43.483,43.483,0,1,1,93.177,49.694,43.483,43.483,0,0,1,49.694,93.177Zm0,6.212A49.694,49.694,0,1,0,0,49.694,49.694,49.694,0,0,0,49.694,99.389Z" fill="#d9e3e8"/>
    <path id="Path_264" data-name="Path 264" d="M7.683,5.344a3.106,3.106,0,0,1,3.23.236L32.655,21.11a3.106,3.106,0,0,1,0,5.056L10.914,41.7A3.106,3.106,0,0,1,6,39.167V8.108A3.106,3.106,0,0,1,7.683,5.344Z" transform="translate(31.271 26.057)" fill="#d9e3e8"/>
  </g>
</svg>
