<svg xmlns="http://www.w3.org/2000/svg" xmlns:xlink="http://www.w3.org/1999/xlink" width="912.201" height="1218.47" viewBox="0 0 912.201 1218.47">
  <defs>
    <clipPath id="clip-path">
      <rect id="Rectangle_205" data-name="Rectangle 205" width="912.201" height="1218.47" fill="none"/>
    </clipPath>
  </defs>
  <g id="Group_231" data-name="Group 231" clip-path="url(#clip-path)">
    <path id="Path_216" data-name="Path 216" d="M68.539,238.976v-84.86L0,.722H51.238L81.268,72.528a194.808,194.808,0,0,1,8,22.845Q92.688,107.451,94,114.956q1.627-7.51,4.731-19.583a193.522,193.522,0,0,1,7.347-22.845L135.118.722h50.913L117.5,154.116v84.86Z" transform="translate(0 2.54)" fill="#d9e3e8"/>
    <path id="Path_217" data-name="Path 217" d="M122.031,244.778q-23.83,0-41.452-8.973a65.521,65.521,0,0,1-27.25-25.131Q43.7,194.516,43.7,172.981V71.806q0-21.546,9.629-37.7A65.54,65.54,0,0,1,80.579,8.978Q98.207,0,122.031,0q24.148,0,41.614,8.978A65.82,65.82,0,0,1,190.732,34.1q9.624,16.158,9.629,37.7V172.981q0,21.539-9.629,37.692A65.8,65.8,0,0,1,163.645,235.8q-17.466,8.974-41.614,8.973m0-42.428q14.687,0,22.032-7.672,7.34-7.652,7.342-21.7V71.806q0-14.368-7.18-21.869t-22.194-7.51q-15.019,0-22.194,7.51t-7.18,21.869V172.981q0,14.036,7.342,21.7,7.347,7.679,22.032,7.672" transform="translate(153.753 0)" fill="#d9e3e8"/>
    <path id="Path_218" data-name="Path 218" d="M162.48,242.239q-36.226,0-57.279-19.578-21.051-19.594-21.051-53.525V.723h48.957V168.807q0,15.012,7.668,23.008t21.706,8q13.711,0,21.539-8t7.835-23.008V.723H240.81V169.136q0,33.61-21.051,53.353t-57.279,19.75" transform="translate(296.068 2.544)" fill="#d9e3e8"/>
    <path id="Path_219" data-name="Path 219" d="M124.6,238.976V.722h57.112l61.685,184.4q-.976-12.064-2.282-27.9t-2.124-31.66q-.813-15.826-.813-26.925V.722h43.078V238.976H224.143l-61.034-184.4q.983,10.451,1.961,24.8t1.794,29.049q.813,14.694.818,26.112V238.976Z" transform="translate(438.386 2.54)" fill="#d9e3e8"/>
    <path id="Path_220" data-name="Path 220" d="M244.684,244.779q-23.83,0-41.777-8.973A67.311,67.311,0,0,1,175,210.675q-9.956-16.158-9.954-37.692V71.807q0-21.871,9.954-37.864A67.78,67.78,0,0,1,202.908,8.974Q220.854,0,244.684,0q24.148,0,41.94,8.973a68.024,68.024,0,0,1,27.738,24.969q9.956,16,9.959,37.864H275.364q0-14.368-8-21.869t-22.682-7.51Q230,42.429,222,49.938t-8,21.869V172.982q0,14.03,8,21.7t22.682,7.672q14.687,0,22.682-7.672t8-21.7V152.419H240.116V110.963h84.2v62.019q0,21.532-9.959,37.692a67.552,67.552,0,0,1-27.738,25.131q-17.791,8.974-41.94,8.973" transform="translate(580.701 0.004)" fill="#d9e3e8"/>
    <path id="Path_221" data-name="Path 221" d="M.723,301.944,59.141,63.69h62.01l59.073,238.254H130.292l-11.422-53.854H62.078L50.656,301.944Zm69.515-93.015h40.146L98.957,151.487q-2.284-12.4-4.731-24.643t-3.75-19.09q-1.315,6.852-3.429,18.927t-4.731,24.476Z" transform="translate(2.544 224.085)" fill="#d9e3e8"/>
    <path id="Path_222" data-name="Path 222" d="M123.336,307.746q-23.83,0-41.777-8.974a67.313,67.313,0,0,1-27.905-25.131Q43.7,257.484,43.7,235.949V134.774q0-21.871,9.954-37.864A67.781,67.781,0,0,1,81.559,71.942q17.947-8.973,41.777-8.974,24.148,0,41.94,8.974A68.024,68.024,0,0,1,193.014,96.91q9.956,15.995,9.958,37.864H154.016q0-14.369-8-21.869T123.336,105.4q-14.687,0-22.682,7.509t-8,21.869V235.949q0,14.03,8,21.7t22.682,7.672q14.687,0,22.682-7.672t8-21.7V215.386H118.768V173.93h84.2v62.019q0,21.532-9.958,37.692a67.552,67.552,0,0,1-27.738,25.131q-17.791,8.973-41.94,8.974" transform="translate(153.753 221.545)" fill="#d9e3e8"/>
    <path id="Path_223" data-name="Path 223" d="M81.621,301.944,140.039,63.69h62.01l59.073,238.254H211.194l-11.427-53.854H142.976l-11.422,53.854Zm69.52-93.015h40.141l-11.427-57.442q-2.284-12.4-4.731-24.643t-3.75-19.09q-1.315,6.852-3.429,18.927t-4.731,24.476Z" transform="translate(287.173 224.085)" fill="#d9e3e8"/>
    <path id="Path_224" data-name="Path 224" d="M126.043,301.943V259.516h47.325v-153.4H126.043V63.689h143.6v42.428H222.325v153.4h47.321v42.428Z" transform="translate(443.468 224.083)" fill="#d9e3e8"/>
    <path id="Path_225" data-name="Path 225" d="M165.048,301.943V63.689H222.16l61.685,184.4q-.976-12.064-2.282-27.9t-2.124-31.66q-.813-15.826-.813-26.925V63.689H321.7V301.943H264.592l-61.034-184.4q.983,10.451,1.961,24.8t1.794,29.049q.813,14.694.818,26.112V301.943Z" transform="translate(580.701 224.082)" fill="#d9e3e8"/>
    <path id="Path_226" data-name="Path 226" d="M.371,391.5V153.251H57.483l61.685,184.4q-.976-12.064-2.282-27.9t-2.124-31.66q-.813-15.826-.813-26.925V153.251h43.078V391.5H99.915l-61.034-184.4q.983,10.451,1.961,24.8t1.794,29.049q.813,14.694.818,26.112V391.5Z" transform="translate(1.305 539.194)" fill="#d1e6ef"/>
    <path id="Path_227" data-name="Path 227" d="M44.061,391.424V153.17h146.87v41.777H92.037v53.525H179.5v41.777H92.037v59.4h98.894v41.777Z" transform="translate(155.024 538.91)" fill="#d1e6ef"/>
    <path id="Path_228" data-name="Path 228" d="M141,391.446,81.923,153.192h50.588l32.962,150.462q1.633,7.828,4.085,19.908t3.75,20.563q1.3-8.492,3.262-20.563t3.592-20.238l31.986-150.132h49.282L203.006,391.446Z" transform="translate(288.236 538.987)" fill="#d1e6ef"/>
    <path id="Path_229" data-name="Path 229" d="M126.043,391.5V153.251h146.87v41.777H174.019v53.525h87.467v41.777H174.019v59.4h98.894V391.5Z" transform="translate(443.467 539.194)" fill="#d1e6ef"/>
    <path id="Path_230" data-name="Path 230" d="M165.77,391.5V153.251h76.7q25.457,0,44.059,8.815A67.268,67.268,0,0,1,315.414,187.2q10.281,16.32,10.279,38.51,0,23.179-11.26,41.447a64.82,64.82,0,0,1-30.517,26.437L328.956,391.5h-53.2l-38.51-90.083H214.4V391.5ZM214.4,258.995h28.068q16.314,0,25.294-8.156t8.974-22.849q0-15.331-8.974-23.826-8.98-8.479-25.294-8.485H214.4Z" transform="translate(583.241 539.194)" fill="#d1e6ef"/>
    <path id="Path_231" data-name="Path 231" d="M.372,454.472,58.79,216.218H120.8l59.073,238.254H129.941l-11.422-53.854H61.727L50.3,454.472Zm69.515-93.015h40.146L98.606,304.015q-2.284-12.4-4.731-24.643t-3.75-19.09q-1.315,6.852-3.429,18.927t-4.731,24.476Z" transform="translate(1.309 760.736)" fill="#d1e6ef"/>
    <path id="Path_232" data-name="Path 232" d="M123.7,460.275q-23.83,0-41.777-8.974A67.312,67.312,0,0,1,54.015,426.17q-9.956-16.158-9.954-37.692V287.3q0-21.871,9.954-37.864A67.782,67.782,0,0,1,81.92,224.469Q99.868,215.5,123.7,215.5q24.148,0,41.94,8.973a68.025,68.025,0,0,1,27.738,24.969q9.956,16,9.958,37.864H154.377q0-14.368-8-21.869t-22.682-7.51q-14.687,0-22.682,7.51t-8,21.869V388.478q0,14.03,8,21.7t22.682,7.672q14.687,0,22.682-7.672t8-21.7V367.914H119.129V326.458h84.2v62.019q0,21.532-9.958,37.692A67.551,67.551,0,0,1,165.637,451.3q-17.791,8.973-41.94,8.974" transform="translate(155.023 758.196)" fill="#d1e6ef"/>
    <path id="Path_233" data-name="Path 233" d="M81.982,454.472,140.4,216.218h62.01l59.073,238.254H211.555l-11.427-53.854H143.337l-11.422,53.854Zm69.52-93.015h40.137l-11.422-57.442q-2.284-12.4-4.731-24.643t-3.75-19.09q-1.315,6.852-3.429,18.927t-4.731,24.476Z" transform="translate(288.443 760.736)" fill="#d1e6ef"/>
    <path id="Path_234" data-name="Path 234" d="M126.4,454.472V412.044H173.73v-153.4H126.4V216.218h143.6v42.428H222.686v153.4h47.321v42.428Z" transform="translate(444.738 760.735)" fill="#d1e6ef"/>
    <path id="Path_235" data-name="Path 235" d="M165.409,454.472V216.218h57.112l61.685,184.4q-.976-12.064-2.282-27.9t-2.124-31.66q-.813-15.826-.813-26.925V216.218h43.078V454.472H264.953l-61.034-184.4q.983,10.451,1.961,24.8t1.794,29.049q.813,14.694.818,26.112V454.472Z" transform="translate(581.971 760.736)" fill="#d1e6ef"/>
    <rect id="Rectangle_204" data-name="Rectangle 204" width="899.143" height="42.405" transform="translate(3.267 581.646)" fill="#1f88ea"/>
  </g>
</svg>
